<?xml version="1.0" encoding="utf-8"?>
<!-- Generator: Adobe Illustrator 22.1.0, SVG Export Plug-In . SVG Version: 6.00 Build 0)  -->
<svg version="1.1" xmlns="http://www.w3.org/2000/svg" xmlns:xlink="http://www.w3.org/1999/xlink" x="0px" y="0px"
	 viewBox="0 0 800 800" style="enable-background:new 0 0 800 800;" xml:space="preserve">
<style type="text/css">
	.st0{display:none;fill:none;}
	.st1{fill:#ABC8A4;}
	.st2{display:none;fill:none;stroke:#000000;stroke-linecap:round;stroke-miterlimit:10;}
	.st3{fill:none;stroke:#375D3B;stroke-width:7;stroke-linecap:round;stroke-miterlimit:10;}
	.st4{fill:#375D3B;stroke:#375D3B;stroke-width:7;stroke-linecap:round;stroke-miterlimit:10;}
	.st5{fill:#375D3B;}
</style>
<g id="headphones">
	<polyline class="st0" points="399,101.2 399,678.9 399,688.5 399,691 399,733.5 399,756.7 	"/>
	<polyline class="st0" points="399,13.3 399,47.5 399,89.1 399,89.1 	"/>
	<polyline class="st0" points="301,583 260.3,643.4 255.9,649.9 253.4,653.7 230.6,687.4 204,727 	"/>
	<path class="st1" d="M1532.5,524c-8.6,20.4-19.1,39.8-31.4,58c-12.3,18.2-26.3,35.3-42.1,51c-11,11-22.5,21.1-34.7,30.4
		c-18.7,14.3-45.6,9.7-58.7-9.8l-1.8-2.7c0,0,0,0,0,0l-0.7-1l-2.2-3.3c-1.2-1.7-0.6-4.1,1.2-5.1c87.6-49.7,146.8-143.8,146.8-251.5
		c0-158.1-127.7-287-285.3-288.9h-6.1C1059.8,103.1,932.1,232,932.1,390c0,107.7,59.2,201.8,146.8,251.5c1.8,1,2.4,3.4,1.2,5.1
		l-2.2,3.3l-0.7,1c0,0,0,0,0,0l-1.8,2.7c-13.2,19.5-40,24-58.7,9.8c-12.2-9.3-23.8-19.4-34.7-30.4c-15.7-15.8-29.8-32.8-42.1-51
		c-12.3-18.2-22.8-37.6-31.4-58c-3.1-7.3,0.5-15.6,7.9-18.3l23.2-8.3c-11.7-30.7-18.3-63.4-19.4-97c-2.9-86.8,32-171,95.4-230.3
		c55-51.5,126.2-80.1,201.8-81c0.2,0,0.4,0,0.6,0h5c0.2,0,0.4,0,0.6,0c75.6,0.9,146.8,29.5,201.8,81
		c63.4,59.3,98.3,143.5,95.4,230.3c-1.1,33.6-7.7,66.3-19.4,97l23.2,8.3C1532,508.4,1535.6,516.8,1532.5,524z"/>
	<path class="st1" d="M712.5,524c-8.6,20.4-19.1,39.8-31.4,58c-12.3,18.2-26.3,35.3-42.1,51c-11,11-22.5,21.1-34.7,30.4
		c-18.7,14.3-45.6,9.7-58.7-9.8l-1.8-2.7c0,0,0,0,0,0l-0.7-1l-2.2-3.3c-1.2-1.7-0.6-4.1,1.2-5.1c87.6-49.7,146.8-143.8,146.8-251.5
		c0-158.1-127.7-287-285.3-288.9h-6.1C239.8,103.1,112.1,232,112.1,390c0,107.7,59.2,201.8,146.8,251.5c1.8,1,2.4,3.4,1.2,5.1
		l-2.2,3.3l-0.7,1c0,0,0,0,0,0l-1.8,2.7c-13.2,19.5-40,24-58.7,9.8c-12.2-9.3-23.8-19.4-34.7-30.4c-15.7-15.8-29.8-32.8-42.1-51
		c-12.3-18.2-22.8-37.6-31.4-58c-3.1-7.3,0.5-15.6,7.9-18.3l23.2-8.3c-11.7-30.7-18.3-63.4-19.4-97c-2.9-86.8,32-171,95.4-230.3
		c55-51.5,126.2-80.1,201.8-81c0.2,0,0.4,0,0.6,0h5c0.2,0,0.4,0,0.6,0c75.6,0.9,146.8,29.5,201.8,81
		c63.4,59.3,98.3,143.5,95.4,230.3c-1.1,33.6-7.7,66.3-19.4,97l23.2,8.3C712,508.4,715.6,516.8,712.5,524z"/>
	<line class="st0" x1="94.4" y1="505.7" x2="81.1" y2="510.5"/>
</g>
<g id="symbol">
	<circle id="XMLID_3_" class="st2" cx="1224" cy="390" r="214.5"/>
	<path class="st3" d="M1516.5,152.5"/>
	
		<ellipse transform="matrix(0.8042 -0.5944 0.5944 0.8042 -73.1742 740.743)" class="st4" cx="1087.6" cy="481.4" rx="63.9" ry="89.5"/>
	<g>
		<path class="st5" d="M1370.5,233.5c-34.7-30.6-79.1-49.7-124.7-53.9c-5.7-0.5-11.4-0.6-17.1-0.5c-5.7,0.2-11.4,0.6-17.1,1.3
			c-5.7,0.7-11.3,1.5-17,2.6c-5.6,1-11.2,2.3-16.8,3.6c-11.1,2.7-22.2,5.9-33.1,9.5c-5.4,1.8-10.9,3.7-16.2,5.7
			c-5.3,2-10.7,4.1-15.9,6.3l2.7-4.2l7.2,154.9l-6.4-6.6c16,0.8,32,1.9,47.9,3c16,1.1,31.9,2.4,47.9,3.9c16,1.5,31.9,3.1,47.9,5.2
			c16,2.1,31.9,4.3,48,7.7c16.6,3.6,32.5,9.6,47.5,17.8c7.5,4.1,14.6,8.8,21.4,14.2c6.8,5.3,13.1,11.4,18.8,18.3
			c2.9,3.4,5.5,7,7.9,10.8c2.4,3.8,4.6,7.8,6.5,12c1.9,4.1,3.4,8.5,4.7,13c1.1,4.5,2.1,9,2.5,13.7c0.1,1.2,0.3,2.3,0.3,3.5l0.1,3.5
			l0.1,1.7c0,0.6,0,1.2,0,1.7l-0.1,3.5c-0.2,4.7-0.9,9.4-2,14c-2.1,9.1-5.7,17.7-10.2,25.6c-2.2,3.9-4.7,7.7-7.4,11.3
			c-1.3,1.8-2.7,3.5-4.1,5.2c-1.4,1.7-2.8,3.4-4.3,5c-5.9,6.5-12.2,12.4-18.9,17.9c-6.7,5.4-13.6,10.4-20.7,14.9
			c-3.6,2.3-7.1,4.5-10.8,6.6l-5.6,3.1c-1.8,1.1-3.8,2-5.7,2.9c-15.2,7.7-31.2,13.6-47.7,17.9c-8.3,2.1-16.6,3.9-25.1,5
			c-4.2,0.7-8.5,1.1-12.7,1.5c-2.1,0.2-4.3,0.3-6.4,0.5c-2.1,0.1-4.3,0.3-6.4,0.3l-6.4,0.2c-2.1,0.1-4.3,0-6.4-0.1
			c-4.3,0-8.6-0.3-12.9-0.6c-8.6-0.7-17.1-1.7-25.5-3.4c-16.9-3.2-33.5-8.2-49.3-15.1l-5.9-2.6c-2-0.9-3.9-1.9-5.8-2.9
			c-1.9-1-3.9-1.9-5.8-3l-5.7-3.2c-0.9-0.5-1.9-1-2.8-1.6l-2.8-1.7l-5.5-3.4c-1.8-1.2-3.6-2.4-5.4-3.7c-1.8-1.2-3.6-2.4-5.3-3.7
			c-13.9-10.3-26.8-22.1-38.2-35.2c-6.9-7.9-6.1-19.9,1.9-26.8c7.9-6.9,19.9-6.1,26.8,1.9c0.1,0.1,0.2,0.3,0.3,0.4l0.1,0.1
			c9.2,11.3,19.6,21.5,31.1,30.6c1.4,1.2,2.9,2.2,4.4,3.3c1.5,1.1,2.9,2.2,4.4,3.2l4.6,3l2.3,1.5c0.8,0.5,1.6,0.9,2.3,1.4l4.7,2.8
			c1.6,1,3.2,1.8,4.8,2.7c1.6,0.9,3.2,1.8,4.8,2.6l4.9,2.4c13.2,6.3,27.2,11,41.6,14.2c7.2,1.7,14.5,2.8,21.8,3.6
			c3.7,0.3,7.3,0.7,11,0.8c1.8,0.1,3.7,0.2,5.5,0.2l5.5,0c1.8,0.1,3.7-0.1,5.5-0.1c1.8-0.1,3.7-0.1,5.5-0.2c3.7-0.3,7.4-0.5,11.1-1
			c7.4-0.8,14.7-2.1,22-3.7c14.5-3.3,28.7-8,42.2-14.4c1.7-0.8,3.4-1.5,5-2.4l5-2.6c3.3-1.7,6.6-3.6,9.8-5.6
			c6.5-3.8,12.7-8,18.5-12.5c5.8-4.5,11.4-9.3,16.3-14.5c1.3-1.3,2.4-2.6,3.7-4c1.1-1.4,2.3-2.7,3.4-4.1c2.2-2.7,4.2-5.6,6-8.5
			c3.6-5.9,6.4-12.1,8.1-18.5c0.8-3.2,1.4-6.4,1.7-9.6l0.2-2.5c0-0.4,0.1-0.8,0.1-1.3l0-1.3l0-2.5c0-0.8-0.1-1.7-0.2-2.5
			c-0.2-3.3-0.8-6.6-1.5-9.9c-0.9-3.2-1.8-6.5-3.2-9.6c-1.2-3.2-2.9-6.2-4.6-9.2c-1.8-3-3.7-5.9-5.9-8.7c-4.3-5.6-9.4-10.8-15-15.5
			c-5.6-4.7-11.6-9-18-12.8c-6.4-3.8-13.1-7.1-20-10c-6.9-2.9-14.1-5.2-21.3-7c-15-3.7-30.6-6.4-46.2-8.9
			c-15.6-2.5-31.3-4.7-47.1-6.6c-15.8-2-31.6-3.8-47.4-5.4c-15.8-1.6-31.7-3.2-47.5-4.5l-6.3-0.5l-0.1-6.1l-2.2-155l0-3.1l2.7-1.1
			c11-4.3,22-8,33.2-11.3c11.2-3.3,22.5-6.2,33.9-8.6c5.7-1.2,11.5-2.2,17.2-3.1c5.8-0.9,11.6-1.6,17.4-2.1
			c5.8-0.5,11.7-0.7,17.6-0.7c5.9,0.1,11.7,0.4,17.6,1.1C1292.6,181,1336.8,201.8,1370.5,233.5z"/>
	</g>
	<path class="st3" d="M1522.5,147.5"/>
	<circle id="XMLID_1_" class="st2" cx="404" cy="390" r="214.5"/>
	
		<ellipse transform="matrix(0.8042 -0.5944 0.5944 0.8042 -233.753 253.338)" class="st4" cx="267.6" cy="481.4" rx="63.9" ry="89.5"/>
	<g>
		<path class="st5" d="M550.5,233.5c-19.5-17.1-41.9-30.7-65.9-40c-24-9.3-49.6-14.4-75.2-14.8c-25.6-0.3-51.3,3.8-75.3,12.3
			c-12,4.3-23.5,9.7-34.2,16.4c-5.3,3.4-10.5,7-15.4,11c-4.9,4-9.4,8.3-13.7,12.9c-4.2,4.6-8.1,9.4-11.5,14.6
			c-3.3,5.2-6.2,10.6-8.5,16.3c-4.5,11.3-6.7,23.6-5.6,35.4c0.3,3,0.7,5.9,1.4,8.7c0.2,0.7,0.3,1.4,0.5,2.1l0.7,2.1l0.7,2.1
			c0.2,0.7,0.6,1.3,0.8,2c2.2,5.4,5.2,10.3,9,14.7c7.6,8.7,18.1,15,29.5,19.3c1.4,0.5,2.9,1,4.3,1.5c1.4,0.5,2.9,0.9,4.4,1.4
			c1.4,0.5,3,0.8,4.5,1.2l4.6,1.2c1.5,0.4,3,0.8,4.6,1.1l4.6,0.9c3.1,0.6,6.1,1.3,9.3,1.8c12.4,2.2,25.1,3.3,37.8,4.2
			c25.5,1.6,51.4,1.5,77.7,3.3c13.2,0.9,26.4,2.4,39.6,4.7l5,0.9c1.7,0.3,3.3,0.6,5,1c3.4,0.8,6.7,1.6,10,2.6
			c6.6,1.9,13.1,4.2,19.5,6.9c12.7,5.4,24.8,12.1,36,20.6c11.1,8.5,21.4,18.8,29.2,31.2c3.9,6.2,7.2,13,9.6,20.1
			c2.4,7.1,3.9,14.6,4.3,22.2c0.1,1.9,0.2,3.8,0.2,5.7c-0.1,1.9-0.1,3.8-0.2,5.7c-0.3,3.9-0.8,7.7-1.6,11.4
			c-0.8,3.7-1.9,7.4-3.1,10.9c-1.2,3.6-2.7,7-4.4,10.3c-3.3,6.7-7.2,12.9-11.7,18.7c-4.4,5.7-9.2,11-14.2,15.9
			c-10.1,9.9-21.3,18.2-32.8,25.6c-2.9,1.9-5.8,3.6-8.7,5.4c-3,1.7-6,3.4-9,5.1c-3.1,1.5-6.2,3.2-9.3,4.6l-4.7,2.1
			c-1.6,0.7-3.1,1.4-4.8,2.1c-12.7,5.3-26,9.6-39.5,12.7c-27,6.1-55.2,7.7-82.9,4c-27.7-3.6-54.7-12.3-79.5-25.7
			c-24.7-13.3-47.1-31.2-65.5-52.5l0,0c-6.9-7.9-6-19.9,2-26.8s19.9-6,26.8,2c0.1,0.1,0.3,0.3,0.4,0.4c14.9,18.3,33.2,34,53.7,45.9
			c20.5,11.9,43.4,20,67,23.9c23.5,3.9,48,3.4,71.6-1.3c11.8-2.3,23.5-5.7,34.8-10c1.4-0.5,2.8-1.1,4.2-1.7l4.2-1.7
			c2.8-1.2,5.5-2.5,8.2-3.8l8-4.2c2.7-1.5,5.4-3,8-4.6c10.5-6.3,20.3-13.2,29-21.2c4.3-4,8.4-8.2,12.1-12.7
			c3.6-4.4,6.7-9.1,9.3-13.9c1.3-2.4,2.4-4.9,3.4-7.5c1-2.5,1.8-5.1,2.4-7.7c0.6-2.6,1.1-5.2,1.4-7.8l0.3-4.1c0-1.4,0-2.7,0-4
			c-0.3-10.8-3.5-21.4-9.2-31.1c-5.7-9.7-13.7-18.4-22.9-25.9c-9.2-7.5-19.7-13.8-30.7-18.8c-5.5-2.5-11.2-4.7-16.9-6.6
			c-2.9-0.9-5.8-1.8-8.7-2.5c-1.4-0.4-3-0.7-4.5-1l-4.6-1c-12.2-2.6-24.7-4.3-37.3-5.6c-12.7-1.2-25.5-2.1-38.4-2.9
			c-12.9-0.8-26-1.6-39-2.8c-13.1-1.2-26.2-2.9-39.3-5.6c-3.3-0.6-6.5-1.4-9.8-2.2l-4.9-1.2c-1.6-0.4-3.2-0.9-4.8-1.4l-4.8-1.4
			c-1.6-0.5-3.2-0.9-4.8-1.5c-1.6-0.6-3.2-1.1-4.8-1.7c-1.6-0.6-3.2-1.2-4.8-1.9c-6.3-2.6-12.5-5.9-18.3-9.8
			c-5.8-4-11.2-8.7-15.8-14.2c-4.6-5.5-8.2-11.9-10.7-18.6c-0.3-0.8-0.7-1.7-0.9-2.5l-0.7-2.6l-0.7-2.6c-0.2-0.9-0.4-1.7-0.5-2.6
			c-0.3-1.7-0.7-3.5-0.9-5.2c-0.2-1.7-0.5-3.5-0.5-5.2c-0.9-14,2.1-27.9,7.6-40.4c2.7-6.3,6.1-12.2,9.9-17.8c0.9-1.4,2-2.8,3-4.1
			c1-1.4,2.1-2.7,3.2-4c1.1-1.3,2.2-2.5,3.3-3.8l1.7-1.9l1.8-1.8c4.7-4.8,9.7-9.2,15-13.3c5.3-4.1,10.9-7.7,16.6-11.1
			c11.5-6.7,23.7-12,36.2-16.1c25.1-8.1,51.5-11.4,77.7-10.3c26.2,1.2,52,7.2,76,17.4C509.4,201.5,531.5,215.8,550.5,233.5z"/>
	</g>
	<path class="st3" d="M702.5,147.5"/>
	<g>
		<path class="st5" d="M1111.6,233.9c19.1-10.4,39.7-17.7,60.9-21.9c21.2-4.2,42.9-5.3,64.4-3.3c21.4,2,42.6,7,62.5,14.9
			c19.9,7.9,38.7,18.8,55.3,32.2c-17-13-35.9-23.4-55.9-30.8c-20-7.4-41-11.9-62.2-13.3c-21.2-1.4-42.5,0.1-63.2,4.8
			c-20.7,4.6-40.6,12.3-58.9,22.8c-1.4,0.8-3.3,0.3-4.1-1.1C1109.6,236.5,1110.1,234.7,1111.6,233.9
			C1111.6,233.9,1111.6,233.9,1111.6,233.9z"/>
	</g>
</g>
</svg>
